<svg width="110" height="110" viewBox="0 0 110 110" fill="none" xmlns="http://www.w3.org/2000/svg">
<path d="M93.9583 11.4584H16.0416L22.9166 89.375L55 98.5417L87.0833 89.375L93.9583 11.4584Z" fill="#0277BD"/>
<path d="M55 18.3334V91.4375L80.6667 84.1042L86.3958 18.3334H55Z" fill="#039BE5"/>
<path d="M75.8542 29.7916H55V38.9583H66.2292L65.5417 48.125H55V57.2916H65.0833L64.3958 67.6041L55 70.8125V80.4375L73.1042 74.4791L74.7083 48.125L75.8542 29.7916Z" fill="white"/>
<path d="M55 29.7916V38.9583H34.6041L33.9166 29.7916H55ZM44.4583 48.125L44.9166 57.2916H55V48.125H44.4583ZM45.375 61.875H36.2083L36.8958 74.4791L55 80.4375V70.8125L45.6041 67.6041L45.375 61.875Z" fill="#EEEEEE"/>
</svg>
