<svg width="110" height="110" viewBox="0 0 110 110" fill="none" xmlns="http://www.w3.org/2000/svg">
<path d="M59.5834 38.9583H41.25C32.3905 38.9583 25.2084 31.7762 25.2084 22.9167C25.2084 14.0571 32.3905 6.875 41.25 6.875H59.5834V38.9583Z" fill="#E64A19"/>
<path d="M57.2917 71.0416H41.25C32.3905 71.0416 25.2084 63.8595 25.2084 54.9999C25.2084 46.1403 32.3905 38.9583 41.25 38.9583H57.2917V71.0416Z" fill="#7C4DFF"/>
<path d="M41.25 103.125C32.3905 103.125 25.2084 95.943 25.2084 87.0834C25.2084 78.2238 32.3905 71.0417 41.25 71.0417H57.2917V87.0834C57.2917 95.943 50.1096 103.125 41.25 103.125Z" fill="#66BB6A"/>
<path d="M73.3334 38.9583H57.2917V6.875H73.3334C82.193 6.875 89.3751 14.0571 89.3751 22.9167C89.3751 31.7762 82.193 38.9583 73.3334 38.9583Z" fill="#FF7043"/>
<path d="M73.3334 71.0416C82.193 71.0416 89.3751 63.8595 89.3751 54.9999C89.3751 46.1404 82.193 38.9583 73.3334 38.9583C64.4738 38.9583 57.2917 46.1404 57.2917 54.9999C57.2917 63.8595 64.4738 71.0416 73.3334 71.0416Z" fill="#29B6F6"/>
</svg>
