<svg width="110" height="110" viewBox="0 0 110 110" fill="none" xmlns="http://www.w3.org/2000/svg">
<path d="M93.9583 55.0001C93.9583 76.5417 76.5416 93.9584 55 93.9584C33.4583 93.9584 16.0416 76.5417 16.0416 55.0001C16.0416 33.4584 33.4583 16.0417 55 16.0417C76.5416 16.0417 93.9583 33.4584 93.9583 55.0001Z" fill="white"/>
<path d="M48.125 93.9585V81.3543C48.125 80.6668 48.5833 80.2085 49.2708 80.2085C49.9583 80.2085 50.4167 80.6668 50.4167 81.3543V93.9585H55V79.0627C55 78.3752 55.4583 77.9168 56.1458 77.9168C56.8333 77.9168 57.2917 78.3752 57.2917 79.0627V93.9585H61.875V81.3543C61.875 80.6668 62.3333 80.2085 63.0208 80.2085C63.7083 80.2085 64.1667 80.6668 64.1667 81.3543V93.9585H68.2917C68.75 93.271 68.75 92.5835 68.75 91.4377V82.5002C68.75 77.4585 64.3958 70.5835 58.8958 70.5835H53.1667C47.8958 70.5835 43.3125 77.6877 43.3125 82.5002V91.4377C43.3125 92.3543 43.5417 93.271 43.7708 93.9585H48.125Z" fill="#455A64"/>
<path d="M91.8957 60.5C91.8957 60.5 88.9165 59.5833 86.3957 59.5833H86.1665C83.6457 59.5833 79.5207 60.2708 79.5207 60.2708C79.2915 60.2708 79.2915 60.2708 79.2915 60.0417C79.2915 59.8125 79.2915 59.8125 79.5207 59.8125C79.7498 59.8125 84.104 59.125 86.6248 59.125C89.1457 59.125 92.1248 60.0417 92.354 60.0417C92.5832 60.0417 92.5832 60.2708 92.5832 60.5C92.1248 60.2708 92.1248 60.5 91.8957 60.5Z" fill="#455A64"/>
<path d="M91.2082 62.3335C91.2082 62.3335 87.9998 61.4168 85.2498 61.4168C83.1873 61.4168 78.3748 61.8752 78.1457 61.8752C77.9165 61.8752 77.9165 61.8752 77.9165 61.646C77.9165 61.4168 77.9165 61.4168 78.1457 61.4168C78.3748 61.4168 83.1873 60.9585 85.2498 60.9585C88.229 60.9585 91.2082 61.8752 91.2082 61.8752C91.4373 61.8752 91.4373 62.1043 91.4373 62.3335C91.4373 62.1043 91.4373 62.3335 91.2082 62.3335Z" fill="#455A64"/>
<path d="M17.8749 60.5001C17.6458 60.5001 17.6458 60.5001 17.6458 60.2709C17.6458 60.0417 17.6458 60.0417 17.8749 59.8126C19.7083 59.3542 23.3749 58.6667 25.4374 58.6667C27.2708 58.6667 33.4583 59.1251 33.6874 59.1251C33.9166 59.1251 33.9166 59.3542 33.9166 59.3542C33.9166 59.5834 33.6874 59.5834 33.6874 59.5834C33.6874 59.5834 27.4999 59.1251 25.6666 59.1251C23.1458 59.5834 19.7083 60.0417 17.8749 60.5001Z" fill="#455A64"/>
<path d="M18.7917 63.9375C18.7917 63.9375 18.5625 63.9375 18.5625 63.7083C18.5625 63.4792 18.5625 63.4792 18.5625 63.25C18.7917 63.25 21.7708 61.4167 25.2083 60.9583C28.1875 60.5 34.375 61.1875 34.8333 61.1875C35.0625 61.1875 35.0625 61.4167 35.0625 61.4167C35.0625 61.6458 34.8333 61.6458 34.8333 61.6458C34.8333 61.6458 28.4167 60.9583 25.4375 61.4167C22 62.1042 18.7917 63.9375 18.7917 63.9375Z" fill="#455A64"/>
<path d="M32.5415 53.8542C32.5415 43.7708 43.0832 34.375 56.1457 34.375C69.2082 34.375 79.7498 43.5417 79.7498 53.8542C79.7498 64.1667 72.1873 71.0417 56.1457 71.0417C40.104 71.0417 32.5415 63.9375 32.5415 53.8542Z" fill="#455A64"/>
<path d="M65.5415 37.3543C65.5415 37.3543 69.4373 32.0835 76.5415 32.0835C79.2915 34.8335 77.4582 43.0835 76.5415 45.3752L65.5415 37.3543Z" fill="#455A64"/>
<path d="M46.75 37.3543C46.75 37.3543 42.8542 32.0835 35.75 32.0835C33 34.8335 34.8334 43.0835 35.75 45.3752L46.75 37.3543Z" fill="#455A64"/>
<path d="M46.0624 82.2709C46.0624 82.2709 40.7916 82.2709 39.6458 82.2709C36.8958 82.2709 34.3749 81.1251 33.2291 78.8334C31.8541 76.3126 30.7083 73.5626 27.2708 71.2709C26.5833 70.8126 27.0416 70.3542 28.1874 70.3542C29.3333 70.5834 31.3958 70.8126 32.9999 72.8751C34.6041 74.9376 36.4374 77.4584 39.4166 77.4584C42.3958 77.4584 45.6041 77.4584 47.4374 75.3959L46.0624 82.2709Z" fill="#455A64"/>
<path d="M55 9.16675C29.7916 9.16675 9.16663 29.7917 9.16663 55.0001C9.16663 80.2084 29.7916 100.833 55 100.833C80.2083 100.833 100.833 80.2084 100.833 55.0001C100.833 29.7917 80.2083 9.16675 55 9.16675ZM55 91.6667C34.8333 91.6667 18.3333 75.1667 18.3333 55.0001C18.3333 34.8334 34.8333 18.3334 55 18.3334C75.1666 18.3334 91.6666 34.8334 91.6666 55.0001C91.6666 75.1667 75.1666 91.6667 55 91.6667Z" fill="#00BCD4"/>
</svg>
