<svg width="110" height="110" viewBox="0 0 110 110" fill="none" xmlns="http://www.w3.org/2000/svg">
<path d="M93.9583 11.4584H16.0416L22.9166 89.375L55 98.5417L87.0833 89.375L93.9583 11.4584Z" fill="#E65100"/>
<path d="M55 18.3334V91.4375L80.6667 84.1042L86.3958 18.3334H55Z" fill="#FF6D00"/>
<path d="M55 57.2916V48.125H74.7083L73.1042 74.4791L55 80.4375V70.8125L64.3958 67.6041L65.0833 57.2916H55ZM75.3958 38.9583L76.0833 29.7916H55V38.9583H75.3958Z" fill="white"/>
<path d="M55 70.8125V80.4375L36.8959 74.4791L35.9792 61.875H45.1459L45.6042 67.6041L55 70.8125ZM43.7709 38.9583H55V29.7916H34.1459L35.75 57.2916H55V48.125H44.4584L43.7709 38.9583Z" fill="#EEEEEE"/>
</svg>
