<svg width="110" height="110" viewBox="0 0 110 110" fill="none" xmlns="http://www.w3.org/2000/svg">
<path d="M13.75 96.25V13.75H96.25V96.25H13.75Z" fill="#FFD600"/>
<path d="M67.6913 75.5035C69.2771 78.0794 71.0004 80.5475 74.651 80.5475C77.7173 80.5475 79.326 79.0235 79.326 76.9152C79.326 74.3921 77.6623 73.496 74.289 72.0271L72.4396 71.2387C67.1023 68.9746 63.5525 66.1375 63.5525 60.1448C63.5525 54.6219 67.7806 50.4189 74.3875 50.4189C79.0923 50.4189 82.4725 52.0483 84.9108 56.3154L79.1496 59.9981C77.8823 57.7339 76.5119 56.8425 74.3875 56.8425C72.2196 56.8425 70.8469 58.2106 70.8469 59.9981C70.8469 62.2073 72.2219 63.101 75.3958 64.4692L77.2452 65.2575C83.5358 67.9364 87.0833 70.6727 87.0833 76.8235C87.0833 83.451 81.8492 87.0833 74.8229 87.0833C67.9502 87.0833 64.0475 83.6344 61.875 79.365L67.6913 75.5035Z" fill="#000001"/>
<path d="M41.1401 75.6914C42.2996 77.7677 44.0619 79.365 46.5965 79.365C49.0211 79.365 50.4167 78.407 50.4167 74.6831V50.4166H58.0548V75.8564C58.0548 83.5725 53.5792 87.0833 47.0434 87.0833C41.1378 87.0833 36.8753 83.082 35.1382 79.365L41.1401 75.6914Z" fill="#000001"/>
</svg>
