<svg width="110" height="110" viewBox="0 0 110 110" fill="none" xmlns="http://www.w3.org/2000/svg">
<path d="M96.25 39.6459C96.25 86.6251 55 100.833 55 100.833C55 100.833 13.75 86.6251 13.75 39.6459C13.75 33.9167 14.2083 29.1042 14.6667 25.2084C15.3542 19.4792 19.25 14.8959 24.75 13.5209C31.8542 11.4584 43.0833 9.16675 55 9.16675C66.9167 9.16675 78.1458 11.4584 85.4792 13.5209C90.9792 14.8959 94.875 19.7084 95.5625 25.2084C95.7917 29.1042 96.25 34.1459 96.25 39.6459Z" fill="#5D4037"/>
<path d="M55 16.0417C66.2292 16.0417 76.7708 18.3334 83.6458 20.1667C86.3958 20.8542 88.2292 23.1459 88.6875 26.1251C89.1458 30.4792 89.375 35.0626 89.375 39.6459C89.375 75.3959 63.0208 89.8334 55 93.2709C46.9792 89.6042 20.625 75.1667 20.625 39.6459C20.625 35.0626 20.8542 30.4792 21.3125 26.1251C21.5417 23.1459 23.6042 20.8542 26.3542 20.1667C33.2292 18.3334 43.7708 16.0417 55 16.0417ZM55 9.16675C43.0833 9.16675 31.8542 11.4584 24.5208 13.5209C19.25 14.8959 15.125 19.7084 14.6667 25.2084C14.2083 29.1042 13.75 34.1459 13.75 39.6459C13.75 86.6251 55 100.833 55 100.833C55 100.833 96.25 86.6251 96.25 39.6459C96.25 33.9167 95.7917 29.1042 95.3333 25.2084C94.6458 19.4792 90.75 14.8959 85.25 13.5209C78.1458 11.4584 66.9167 9.16675 55 9.16675Z" fill="#4CAF50"/>
<path d="M57.2916 64.1667H52.7083V82.5001H57.2916V64.1667Z" fill="#DCEDC8"/>
<path d="M55 22.9167C55 22.9167 41.25 34.3751 41.25 52.7084C41.25 64.6251 48.8125 72.1876 52.7083 75.6251L55 68.7501L57.2917 75.6251C61.1875 72.1876 68.75 64.6251 68.75 52.7084C68.75 34.3751 55 22.9167 55 22.9167Z" fill="#4CAF50"/>
<path d="M55 22.9167C55 22.9167 41.25 34.3751 41.25 52.7084C41.25 64.6251 48.8125 72.1876 52.7083 75.6251L55 68.7501V22.9167Z" fill="#81C784"/>
</svg>
