<svg width="100" height="100" viewBox="0 0 100 100" fill="none" xmlns="http://www.w3.org/2000/svg">
<g id="postman">
<g id="postman_2">
<path id="Vector" d="M89.5728 19.4394C83.5282 11.6121 75.2981 5.75313 65.9235 2.6035C56.5488 -0.546142 46.4507 -0.844958 36.9062 1.74484C27.3617 4.33463 18.7996 9.69671 12.3027 17.1529C5.80588 24.6091 1.66609 33.8245 0.406949 43.6336C-0.852194 53.4428 0.825867 63.405 5.2289 72.2603C9.63194 81.1157 16.5622 88.4665 25.1431 93.3829C33.7241 98.2994 43.5703 100.561 53.4365 99.8809C63.3027 99.2011 72.7457 95.6107 80.5713 89.5639C102.415 72.6827 106.446 41.2908 89.5712 19.4394H89.5728Z" fill="#FF6C37"/>
<path id="Vector_2" d="M66.8635 31.8582L45.781 53.108L39.8232 46.9831C60.5729 26.2332 62.6557 28.1082 66.865 31.8582H66.8635Z" fill="white"/>
<path id="Vector_3" d="M45.7808 53.6891C45.5941 53.6845 45.4158 53.6104 45.2809 53.4813L39.2809 47.4814C39.1458 47.3415 39.0703 47.1547 39.0703 46.9603C39.0703 46.7658 39.1458 46.579 39.2809 46.4392C59.7385 25.9815 62.5307 26.9394 67.3635 31.3143C67.4444 31.3791 67.5091 31.4618 67.5525 31.5559C67.5959 31.65 67.6168 31.7529 67.6135 31.8565C67.6447 32.0596 67.5666 32.2674 67.4057 32.3987L46.323 53.4829C46.1752 53.6184 45.9814 53.6927 45.7808 53.6907V53.6891ZM40.8637 46.9814L45.7808 51.8985L65.7807 31.8987C65.0901 31.0333 64.1048 30.4528 63.0131 30.2683C61.9215 30.0839 60.8001 30.3083 59.8635 30.8987C56.2386 32.5237 50.4058 37.4814 40.8637 46.9814Z" fill="#FF6C37"/>
<path id="Vector_4" d="M51.8232 58.9828L46.0732 53.1079L67.156 32.2738C72.8231 37.8159 64.406 47.0658 51.8232 58.9812V58.9828Z" fill="white"/>
<path id="Vector_5" d="M51.8229 59.7328C51.6384 59.7181 51.4634 59.6454 51.3229 59.525L45.4479 53.7751C45.3598 53.5614 45.3598 53.3215 45.4479 53.1079C45.3855 52.9326 45.3855 52.741 45.4479 52.5657L66.5306 31.4831C66.6772 31.3454 66.8708 31.2687 67.072 31.2687C67.2732 31.2687 67.4668 31.3454 67.6134 31.4831C68.2961 32.1115 68.8355 32.8796 69.1949 33.7351C69.5543 34.5906 69.7253 35.5134 69.6962 36.4409C69.6962 42.0658 63.279 49.1486 52.3635 59.4828C52.2177 59.6271 52.0258 59.7156 51.8213 59.7328H51.8229ZM47.1557 53.1079L51.8635 57.8141C60.1962 49.9392 68.1556 41.8143 68.1962 36.3143C68.2415 35.1484 67.8561 34.0065 67.1134 33.1066L47.1557 53.1079Z" fill="#FF6C37"/>
<path id="Vector_6" d="M39.9889 47.108L44.1561 51.2751C44.1827 51.2986 44.204 51.3274 44.2186 51.3597C44.2332 51.3921 44.2407 51.4271 44.2407 51.4626C44.2407 51.4981 44.2332 51.5331 44.2186 51.5655C44.204 51.5978 44.1827 51.6266 44.1561 51.6501L35.364 53.5251C35.1865 53.5634 35.0014 53.5426 34.8368 53.466C34.6722 53.3894 34.5371 53.261 34.4522 53.1006C34.3673 52.9401 34.3371 52.7562 34.3663 52.5771C34.3955 52.3979 34.4825 52.2331 34.614 52.1079L39.7389 47.0251C39.7389 47.0251 39.9061 47.0251 39.9889 47.108Z" fill="white"/>
<path id="Vector_7" d="M35.1562 54.3579C34.8784 54.3544 34.6062 54.2798 34.3655 54.1411C34.1247 54.0024 33.9236 53.8043 33.7812 53.5657C33.621 53.2636 33.5629 52.9176 33.6156 52.5797C33.6682 52.2417 33.8289 51.9299 34.0734 51.6908L39.1562 46.5658C39.3395 46.402 39.5767 46.3114 39.8226 46.3114C40.0684 46.3114 40.3057 46.402 40.489 46.5658L44.6561 50.733C44.903 50.9673 44.9998 51.322 44.9061 51.6501C44.8123 51.9783 44.5374 52.2392 44.1983 52.3173L35.4062 54.1923L35.1562 54.3579ZM39.8233 48.0252L35.1156 52.7329L42.9077 51.0658L39.8233 48.0252Z" fill="#FF6C37"/>
<path id="Vector_8" d="M78.0731 20.1489C75.0575 17.2396 70.3199 17.1177 67.1574 19.863C63.9949 22.6083 63.4542 27.3207 65.9168 30.7113C68.3793 34.1019 73.0215 35.0519 76.6153 32.8988L70.9481 27.2317L78.0731 20.1489Z" fill="white"/>
<path id="Vector_9" d="M72.448 34.8144C70.7154 34.7921 69.0277 34.2606 67.5951 33.2859C66.1626 32.3112 65.0485 30.9365 64.3917 29.3331C63.7354 27.7309 63.5633 25.9715 63.8965 24.2725C64.2298 22.5734 65.0538 21.0094 66.2667 19.7738C67.9349 18.1363 70.1791 17.2189 72.5167 17.2189C74.8543 17.2189 77.0986 18.1363 78.7667 19.7738C78.9261 19.9082 79.0167 20.1066 79.0167 20.316C79.0163 20.419 78.9938 20.5208 78.9507 20.6143C78.9076 20.7078 78.8448 20.791 78.7667 20.8582L72.0167 27.2332L77.1417 32.2753C77.2248 32.3546 77.2871 32.453 77.3233 32.562C77.3596 32.6709 77.3686 32.7871 77.3495 32.9003C77.3372 33.0095 77.301 33.1147 77.2435 33.2084C77.186 33.3021 77.1086 33.382 77.0167 33.4425C75.6399 34.3031 74.0571 34.778 72.4339 34.8175L72.448 34.8144ZM72.448 18.6473C69.4792 18.6629 66.823 20.4488 65.7089 23.1785C64.5949 25.9082 65.2011 29.0503 67.2824 31.1472C68.3176 32.1884 69.6431 32.8927 71.0853 33.1679C72.5276 33.4431 74.0193 33.2763 75.3652 32.6894L70.448 27.7722C70.3698 27.7097 70.3067 27.6304 70.2633 27.5402C70.22 27.45 70.1975 27.3512 70.1975 27.2511C70.1975 27.151 70.22 27.0522 70.2633 26.962C70.3067 26.8718 70.3698 26.7925 70.448 26.73L76.948 20.1879C75.6559 19.1976 74.0759 18.6562 72.448 18.6457V18.6473Z" fill="#FF6C37"/>
<path id="Vector_10" d="M78.1976 20.2738L71.0728 27.3565L76.7398 33.0237C77.3102 32.6962 77.8412 32.3046 78.3226 31.8565C79.8079 30.2865 80.6251 28.2009 80.6018 26.0399C80.5785 23.8788 79.7164 21.8113 78.1976 20.2738Z" fill="white"/>
<path id="Vector_11" d="M76.6135 33.6488C76.5199 33.6539 76.4263 33.6378 76.3398 33.6019C76.2532 33.5659 76.1759 33.5109 76.1135 33.441L70.4463 27.7738C70.3682 27.7113 70.3051 27.6321 70.2617 27.5418C70.2183 27.4516 70.1958 27.3528 70.1958 27.2528C70.1958 27.1527 70.2183 27.0539 70.2617 26.9637C70.3051 26.8735 70.3682 26.7942 70.4463 26.7317L77.5291 19.7739C77.5975 19.6708 77.6904 19.5862 77.7994 19.5276C77.9085 19.4691 78.0303 19.4385 78.1541 19.4385C78.2778 19.4385 78.3997 19.4691 78.5087 19.5276C78.6178 19.5862 78.7107 19.6708 78.7791 19.7739C79.6106 20.5886 80.2711 21.561 80.7221 22.6342C81.173 23.7074 81.4053 24.8598 81.4053 26.0239C81.4053 27.1879 81.173 28.3403 80.7221 29.4135C80.2711 30.4867 79.6106 31.4591 78.7791 32.2738C78.2886 32.7941 77.7274 33.2427 77.1119 33.6066C76.9569 33.6847 76.7778 33.6998 76.6119 33.6488H76.6135ZM72.0307 27.2332L76.7385 31.941C77.0623 31.714 77.3689 31.4633 77.6556 31.191C79.0396 29.8108 79.8191 27.9377 79.8228 25.9832C79.826 24.2341 79.1885 22.5444 78.0306 21.2333L72.0307 27.2332Z" fill="#FF6C37"/>
<path id="Vector_12" d="M67.7387 32.7332C67.1744 32.2032 66.4293 31.9082 65.6551 31.9082C64.881 31.9082 64.1359 32.2032 63.5715 32.7332L44.6982 51.5643L47.8232 54.7315L67.7809 37.2316C68.0852 36.9399 68.3267 36.589 68.4903 36.2004C68.6539 35.8119 68.7363 35.394 68.7324 34.9725C68.7284 34.5509 68.6382 34.1346 68.4673 33.7492C68.2964 33.3639 68.0485 33.0175 67.7387 32.7316V32.7332Z" fill="white"/>
<path id="Vector_13" d="M47.6561 55.4829C47.4693 55.4783 47.291 55.4042 47.1561 55.2751L43.9889 52.108C43.8538 51.9681 43.7783 51.7813 43.7783 51.5869C43.7783 51.3925 43.8538 51.2056 43.9889 51.0658L62.8637 32.2738C63.4074 31.7308 64.1017 31.3636 64.8565 31.22C65.6113 31.0763 66.3919 31.1627 67.097 31.468C67.8021 31.7734 68.3992 32.2835 68.8109 32.9323C69.2226 33.5811 69.4299 34.3386 69.4059 35.1066C69.3842 35.6278 69.2588 36.1396 69.0369 36.6118C68.815 37.084 68.5012 37.5072 68.1137 37.8565L48.1561 55.3564C48.0109 55.4591 47.8325 55.5037 47.6561 55.4814V55.4829ZM45.4483 51.5642L47.5311 53.6892L67.1137 36.6472C67.5981 36.2253 67.8871 35.6222 67.9059 34.98C67.9246 34.3378 67.6715 33.7097 67.1981 33.2722C66.7609 32.8368 66.169 32.5924 65.552 32.5924C64.935 32.5924 64.3431 32.8368 63.9059 33.2722L45.4483 51.5642Z" fill="#FF6C37"/>
<path id="Vector_14" d="M30.0736 73.0235C30.0203 73.0959 29.9915 73.1835 29.9915 73.2734C29.9915 73.3634 30.0203 73.451 30.0736 73.5234L30.9064 77.1484C30.9397 77.3617 30.9081 77.5802 30.8156 77.7752C30.723 77.9703 30.5739 78.133 30.3876 78.2422C30.202 78.3507 29.9867 78.3976 29.7727 78.376C29.5587 78.3544 29.3572 78.2654 29.197 78.1219L23.4893 72.6219L41.2812 54.6892H47.4484L51.6155 58.8564C45.1151 64.5398 37.8671 69.3064 30.0736 73.0235Z" fill="white"/>
<path id="Vector_15" d="M29.6985 79.1483C29.2266 79.1389 28.761 78.9452 28.4485 78.6061L22.9908 73.1484C22.9126 73.0859 22.8495 73.0066 22.8061 72.9164C22.7628 72.8262 22.7402 72.7274 22.7402 72.6273C22.7402 72.5272 22.7628 72.4284 22.8061 72.3382C22.8495 72.248 22.9126 72.1687 22.9908 72.1062L40.9062 54.1485C41.0065 54.0419 41.1376 53.9693 41.2812 53.9407H47.489C47.6507 53.8835 47.8272 53.8835 47.989 53.9407L52.1561 58.1079C52.2354 58.1809 52.2957 58.2721 52.3319 58.3737C52.3681 58.4752 52.3791 58.584 52.3639 58.6907C52.3669 58.7942 52.3458 58.897 52.3025 58.9911C52.2591 59.0851 52.1946 59.1679 52.1139 59.2329L51.7811 59.525C45.2545 64.9661 38.074 69.571 30.4063 73.2327L31.1985 76.6077C31.2597 76.8681 31.2621 77.1388 31.2054 77.4002C31.1486 77.6615 31.0343 77.907 30.8707 78.1185C30.707 78.3301 30.4982 78.5024 30.2595 78.623C30.0207 78.7436 29.7581 78.8094 29.4907 78.8155L29.6985 79.1483ZM24.6158 72.6062L29.5313 77.5639C29.5771 77.6048 29.6364 77.6274 29.6977 77.6274C29.7591 77.6274 29.8183 77.6048 29.8641 77.5639C29.8948 77.5214 29.9113 77.4703 29.9113 77.4179C29.9113 77.3654 29.8948 77.3143 29.8641 77.2718L29.0313 73.6468C28.9657 73.3866 28.9921 73.1118 29.106 72.8689C29.2199 72.6259 29.4143 72.4299 29.6563 72.314C37.1179 68.7011 44.1133 64.1958 50.489 58.8969L47.0718 55.4798H41.489L24.6158 72.6062Z" fill="#FF6C37"/>
<path id="Vector_16" d="M19.1983 76.8983L23.3654 72.7312L29.7825 79.1483L19.5748 78.4405C19.3996 78.4268 19.2331 78.358 19.0993 78.2441C18.9654 78.1301 18.8709 77.9768 18.8293 77.806C18.7878 77.6352 18.8012 77.4556 18.8677 77.2929C18.9343 77.1302 19.0505 76.9926 19.1998 76.8999L19.1983 76.8983Z" fill="white"/>
<path id="Vector_17" d="M29.9058 79.7734L19.7387 79.0656C19.1356 79.0093 18.6169 78.5968 18.4044 78.0453C18.1919 77.4937 18.3216 76.839 18.7388 76.3984L22.9059 72.2312C23.0457 72.0961 23.2326 72.0206 23.427 72.0206C23.6214 72.0206 23.8082 72.0961 23.9481 72.2312L30.323 78.6062C30.4112 78.7271 30.4588 78.8729 30.4588 79.0226C30.4588 79.1723 30.4112 79.3181 30.323 79.439C30.2266 79.5949 30.0792 79.7125 29.9058 79.7718V79.7734ZM19.7387 77.4406L28.0715 77.9828L23.4887 73.6906L19.7387 77.4406Z" fill="#FF6C37"/>
<path id="Vector_18" d="M48.0308 55.1923L39.6138 56.4845L44.4887 51.6517L48.0308 55.1923Z" fill="white"/>
<path id="Vector_19" d="M39.6138 57.2736C39.4739 57.2772 39.336 57.2396 39.2174 57.1654C39.0987 57.0912 39.0046 56.9837 38.9466 56.8564C38.8579 56.7357 38.8101 56.5898 38.8101 56.44C38.8101 56.2902 38.8579 56.1443 38.9466 56.0236L43.7793 51.1485C43.9259 51.0108 44.1196 50.9341 44.3207 50.9341C44.5219 50.9341 44.7155 51.0108 44.8621 51.1485L48.4058 54.6892C48.4766 54.8014 48.5141 54.9315 48.5141 55.0642C48.5141 55.1969 48.4766 55.3269 48.4058 55.4392C48.371 55.576 48.2976 55.6999 48.1942 55.7961C48.0909 55.8922 47.962 55.9566 47.823 55.9814L39.4904 57.2736H39.6138ZM44.4887 52.7314L41.7809 55.4392L46.448 54.7314L44.4887 52.7314Z" fill="#FF6C37"/>
<path id="Vector_20" d="M48.0311 55.1893L42.1562 55.9393C41.999 55.975 41.8345 55.9591 41.687 55.8939C41.5396 55.8287 41.417 55.7178 41.3376 55.5775C41.2582 55.4372 41.226 55.275 41.246 55.115C41.266 54.9551 41.337 54.8058 41.4484 54.6893L44.4906 51.6471L48.0311 55.1893Z" fill="white"/>
<path id="Vector_21" d="M41.9887 56.733C41.7164 56.7304 41.4496 56.6557 41.2155 56.5165C40.9814 56.3774 40.7883 56.1787 40.6559 55.9408C40.4968 55.6556 40.4351 55.3262 40.4802 55.0028C40.5253 54.6793 40.6748 54.3794 40.9059 54.1486L43.948 51.1064C44.0947 50.9687 44.2883 50.892 44.4894 50.892C44.6906 50.892 44.8842 50.9687 45.0308 51.1064L48.573 54.6486C48.6783 54.7484 48.7525 54.8766 48.7864 55.0177C48.8203 55.1588 48.8126 55.3067 48.7641 55.4435C48.7156 55.5803 48.6285 55.7001 48.5134 55.7883C48.3982 55.8766 48.2599 55.9296 48.1152 55.9408L42.2824 56.6908L41.9887 56.733ZM41.9887 55.1908L46.4058 54.6486L44.448 52.6908L41.9481 55.1908H41.9887ZM78.2384 25.066C78.1599 24.9345 78.0358 24.8364 77.8898 24.7903C77.7438 24.7442 77.5859 24.7534 77.4462 24.816C77.3772 24.8509 77.316 24.8994 77.266 24.9584C77.2161 25.0175 77.1786 25.0859 77.1556 25.1597C77.1092 25.3087 77.1238 25.47 77.1962 25.6082C77.4884 26.2222 77.4071 26.9488 76.9884 27.4832C76.9364 27.5346 76.8956 27.5963 76.8687 27.6644C76.8418 27.7324 76.8294 27.8053 76.8321 27.8785C76.8336 28.025 76.8893 28.1658 76.9884 28.2738C77.0953 28.316 77.2143 28.316 77.3212 28.2738C77.4182 28.2982 77.5201 28.2955 77.6157 28.266C77.7113 28.2365 77.7969 28.1814 77.8634 28.1066C78.2065 27.6865 78.4237 27.178 78.4901 26.6396C78.5565 26.1013 78.4692 25.5552 78.2384 25.0644V25.066Z" fill="#FF6C37"/>
</g>
</g>
</svg>
