<svg width="100" height="62" viewBox="0 0 100 62" fill="none" xmlns="http://www.w3.org/2000/svg">
<path d="M83.678 19.2001C83.5219 15.766 83.9902 12.722 82.4292 10.1464C78.6828 3.74637 69.3169 0 50.5851 0V0.546346H50.1949H50.5851V0C31.8533 0 22.0191 3.74637 18.2728 10.2245C16.7898 12.8781 16.9459 15.844 16.7118 19.2782C16.5557 22.0099 15.3069 24.8977 15.8532 28.0197C16.4776 32.0783 16.7118 36.1368 17.3362 39.8832C17.8045 42.9271 22.0191 45.5028 22.4094 48.3906C23.502 56.3516 31.7753 60.0199 50.5071 60.0199V60.6443H50.0388H50.5851V60.0199C69.3169 60.0199 77.2779 56.3516 78.2926 48.3906C78.6828 45.4247 82.5853 42.9271 83.0536 39.8832C83.678 36.1368 83.9121 32.0783 84.5365 28.0197C85.0829 24.8977 83.8341 21.9319 83.678 19.2001Z" fill="#EFCCA3"/>
<path d="M50.2733 22.0098C53.6294 22.0878 55.9709 24.1951 58.1563 26.1464C60.7319 28.4098 65.1027 29.9708 66.8978 31.922C68.6929 33.8733 71.0344 35.8245 71.8929 38.8684C72.7515 41.9123 72.9856 45.8148 72.9856 46.8294C72.9856 47.8441 73.532 47.6099 75.093 46.8294C78.7613 45.0343 82.8198 40.1953 82.8198 40.1953C82.3516 43.2392 78.371 45.9709 77.9808 48.8587C77.0442 56.8198 69.3173 60.6442 50.1952 60.6442H50.1172H50.5855" fill="#CCAC8D"/>
<path d="M62.6049 15.9219C63.3073 18.3415 65.8049 26.5366 60.9658 23.8049C60.9658 23.8049 62.9951 24.9757 64.2439 29.4245C65.5707 33.8733 68.7707 34.4196 68.7707 34.4196C68.7707 34.4196 74 35.4343 77.9025 32.0781C81.1806 29.2684 81.7269 24.2732 80.322 20.4488C78.9171 16.7024 76.4196 15.5317 72.7512 14.7512C69.0829 13.8927 61.7463 13.1902 62.6049 15.9219Z" fill="#CCAC8D"/>
<path d="M71.8927 31.6879C75.686 31.6879 78.7611 28.6128 78.7611 24.8195C78.7611 21.0262 75.686 17.9512 71.8927 17.9512C68.0995 17.9512 65.0244 21.0262 65.0244 24.8195C65.0244 28.6128 68.0995 31.6879 71.8927 31.6879Z" fill="black"/>
<path d="M70.0974 23.5707C71.0889 23.5707 71.8926 22.767 71.8926 21.7756C71.8926 20.7842 71.0889 19.9805 70.0974 19.9805C69.106 19.9805 68.3022 20.7842 68.3022 21.7756C68.3022 22.767 69.106 23.5707 70.0974 23.5707Z" fill="white"/>
<path d="M61.4341 24.5073C61.4341 24.5073 67.5999 28.722 70.9561 32.8586C74.3122 36.9952 74.2341 37.7757 74.2341 37.7757L71.8146 38.8684C71.8146 38.8684 68.3804 32.3903 64.1658 29.9708C59.8731 27.5512 59.4048 25.522 59.4048 25.522L61.4341 24.5073Z" fill="#EFCCA3"/>
<path d="M50.507 22.0098C47.1509 22.0878 44.6533 24.1951 42.3898 26.1464C39.8142 28.4098 35.2874 29.9708 33.4922 31.922C31.6971 33.8733 29.2776 35.8245 28.419 38.8684C27.5605 41.9123 27.2483 45.8148 27.2483 46.8294C27.2483 47.8441 27.4044 47.9221 25.1409 46.8294C21.4726 45.1124 17.4141 40.1953 17.4141 40.1953C17.8824 43.2392 21.8629 45.9709 22.2531 48.8587C23.3458 56.8198 31.0727 60.6442 50.1948 60.6442H50.585" fill="#CCAC8D"/>
<path d="M68.6148 35.2001C64.8684 30.5952 58.8586 26.3025 50.5073 26.3025H50.4293C42.078 26.3025 36.0682 30.5952 32.3218 35.2001C28.4193 39.9611 28.7315 41.8343 28.7315 46.3611C28.7315 62.7514 34.5072 58.0685 38.3316 60.0978C42.2341 62.049 46.2926 61.4246 50.4293 61.4246H50.5073C54.722 61.4246 58.7025 61.971 62.605 60.0197C66.4294 58.0685 72.205 62.9076 72.205 46.5172C72.2831 41.9904 72.5172 39.9611 68.6148 35.2001Z" fill="#56332B"/>
<path d="M50.1171 30.3611C50.1171 30.3611 49.5707 37.932 48.478 39.4149L50.5074 38.9466L50.1171 30.3611Z" fill="#442823"/>
<path d="M50.6632 30.3611C50.6632 30.3611 51.2095 37.932 52.3022 39.4149L50.2729 38.9466L50.6632 30.3611Z" fill="#442823"/>
<path d="M44.1074 28.5659C43.3269 26.7708 46.1367 23.883 50.5855 23.8049C55.0343 23.8049 57.8441 26.6928 57.0636 28.5659C56.2831 30.4391 53.4734 30.9855 50.5855 31.0635C47.7757 30.9855 44.8879 30.4391 44.1074 28.5659Z" fill="#56332B"/>
<path d="M50.5852 30.3611C50.5852 30.0489 53.2388 29.9708 54.6437 29.0342C54.6437 29.0342 51.7559 29.9708 51.1315 29.5806C50.5071 29.2684 50.351 28.3318 50.351 28.3318C50.351 28.3318 50.1169 29.2684 49.6486 29.5806C49.1023 29.8928 45.8242 29.0342 45.8242 29.0342C45.8242 29.0342 50.1949 30.1269 50.1949 30.3611C50.1949 30.5952 50.1169 31.3757 50.1169 31.9221C50.1169 33.8733 50.1169 38.7123 50.4291 39.1026C50.8974 39.805 50.7413 33.8733 50.7413 31.9221C50.6632 31.2977 50.6632 30.6733 50.5852 30.3611Z" fill="black"/>
<path d="M50.7412 40.8196C52.0681 40.8196 54.4095 41.7562 56.5169 43.2391C54.4876 40.9757 52.0681 39.4148 50.7412 39.4148C49.3364 39.4148 46.3705 41.1318 44.2632 43.6293C46.4486 41.9123 49.2583 40.8196 50.7412 40.8196Z" fill="#7F4A41"/>
<path d="M50.195 54.6343C47.2291 54.6343 44.3413 53.6977 41.6876 52.9953C41.1413 52.8392 40.5949 53.2294 40.0486 53.0733C35.1315 51.5123 31.151 48.8587 28.7314 45.5025V46.283C28.7314 62.6734 34.5071 58.0685 38.3315 60.0198C42.234 61.971 46.2925 61.3466 50.4292 61.3466H50.5072C54.7219 61.3466 58.7024 61.893 62.6048 59.9417C66.4293 57.9905 72.2049 62.7515 72.2049 46.3611C72.2049 45.7367 72.2049 45.1123 72.283 44.5659C70.0195 48.2343 65.8829 51.1221 60.7317 52.8392C60.2634 52.9953 59.1707 52.605 58.7024 52.6831C55.8926 53.6197 53.395 54.6343 50.195 54.6343Z" fill="#442823"/>
<path d="M42.7804 45.8149C42.7804 45.8149 40.8291 51.6687 42.156 54.2443L40.3608 53.4638C40.3608 53.4638 41.6877 47.532 42.7804 45.8149ZM58.2341 45.8149C58.2341 45.8149 60.1854 51.6687 58.8585 54.2443L60.6537 53.4638C60.6537 53.4638 59.2488 47.532 58.2341 45.8149Z" fill="#442823"/>
<path d="M37.7851 15.9219C37.0827 18.3415 34.5851 26.5366 39.4242 23.8049C39.4242 23.8049 37.3949 24.9757 36.1461 29.4245C34.8973 33.8733 31.6193 34.4196 31.6193 34.4196C31.6193 34.4196 26.39 35.4343 22.4875 32.0781C19.2094 29.2684 18.6631 24.2732 20.068 20.4488C21.4728 16.6244 23.9704 15.5317 27.6387 14.7512C31.3071 13.8927 38.5656 13.1902 37.7851 15.9219Z" fill="#CCAC8D"/>
<path d="M50.5071 39.4147C52.6145 39.4147 59.1706 43.9415 59.2486 49.483V49.1708C59.2486 43.3952 53.9413 38.7903 50.5071 38.7903C47.073 38.7903 41.7656 43.4732 41.7656 49.1708V49.483C41.8437 43.9415 48.3998 39.4147 50.5071 39.4147Z" fill="black"/>
<path d="M52.211 28.6084C52.5449 28.5222 52.6846 27.9448 52.5231 27.3188C52.3616 26.6927 51.96 26.255 51.6261 26.3411C51.2922 26.4272 51.1524 27.0046 51.3139 27.6307C51.4754 28.2568 51.8771 28.6945 52.211 28.6084Z" fill="#331712"/>
<path d="M48.1995 28.5966C48.5288 28.6988 48.9511 28.281 49.1427 27.6634C49.3343 27.0459 49.2226 26.4625 48.8932 26.3603C48.5639 26.2581 48.1416 26.6759 47.95 27.2934C47.7584 27.911 47.8701 28.4944 48.1995 28.5966Z" fill="#331712"/>
<path d="M28.8874 31.6879C32.6807 31.6879 35.7557 28.6128 35.7557 24.8195C35.7557 21.0262 32.6807 17.9512 28.8874 17.9512C25.0941 17.9512 22.019 21.0262 22.019 24.8195C22.019 28.6128 25.0941 31.6879 28.8874 31.6879Z" fill="black"/>
<path d="M30.6828 23.5707C31.6742 23.5707 32.4779 22.767 32.4779 21.7756C32.4779 20.7842 31.6742 19.9805 30.6828 19.9805C29.6914 19.9805 28.8877 20.7842 28.8877 21.7756C28.8877 22.767 29.6914 23.5707 30.6828 23.5707Z" fill="white"/>
<path d="M52.5366 24.8976C52.5366 24.8195 50.7415 25.6781 50.2732 25.7561C49.8049 25.6781 48.0098 24.8195 48.0098 24.8976H52.5366Z" fill="#7F4A41"/>
<path d="M38.8779 24.5073C38.8779 24.5073 32.712 28.722 29.3559 32.8586C25.9997 36.9952 26.0778 37.7757 26.0778 37.7757L28.4973 38.8684C28.4973 38.8684 31.9315 32.3903 36.1461 29.9708C40.3608 27.5512 40.9071 25.522 40.9071 25.522L38.8779 24.5073Z" fill="#EFCCA3"/>
<path d="M25.3753 12.0196C25.3753 12.0196 23.2679 17.7952 18.585 20.2147C18.585 20.2147 25.9216 19.3562 25.3753 12.0196ZM74.6244 12.0196C74.6244 12.0196 76.7317 17.7952 81.4146 20.2147C81.4146 20.2147 74.078 19.3562 74.6244 12.0196ZM61.2779 22.7904C61.2779 22.7904 56.673 17.9513 50.5071 17.7952H50.5852H50.6632C44.4193 17.9513 39.8924 22.7904 39.8924 22.7904C45.2778 19.044 49.8827 19.1221 50.6632 19.1221C50.5852 19.1221 55.8925 19.044 61.2779 22.7904ZM55.8925 12.644C55.8925 12.644 53.5511 9.36589 50.4291 9.28784H50.5852C48.2437 9.36589 45.1998 12.644 45.1998 12.644C47.8534 10.0683 50.5852 10.1464 50.5852 10.1464C50.5852 10.1464 53.1608 10.0683 55.8925 12.644ZM28.8875 36.6051C28.8875 36.6051 25.2192 38.4002 22.5655 37.3075H22.4874C20.1459 35.9807 18.9752 32.0002 18.9752 32.0002C18.9752 32.0002 21.3167 39.0246 28.8875 36.6051ZM71.6585 36.6051C71.6585 36.6051 75.3268 38.4002 77.9805 37.3075C81.1025 35.9807 81.5707 32.0002 81.5707 32.0002C81.5707 32.0002 79.2293 39.0246 71.6585 36.6051Z" fill="#CCAC8D"/>
<path d="M33.1021 11.6291C35.1314 11.2389 38.4875 11.1608 41.1412 12.0194C44.4973 13.1901 41.7656 17.4828 42.468 17.717C43.1705 17.9511 44.107 14.7511 50.351 15.0633C56.673 15.3755 57.3754 18.1853 58.234 17.717C59.0925 17.2487 57.3754 9.91203 66.8194 11.6291C66.8194 11.6291 56.9071 8.97544 57.3754 16.156C57.3754 16.156 51.6778 11.7852 43.7168 15.6877C43.7949 15.6877 45.8241 8.97544 33.1021 11.6291ZM67.6779 11.6291C67.834 11.6291 67.9121 11.7072 67.9901 11.7072C68.0682 11.7072 67.9121 11.6291 67.6779 11.6291ZM30.3704 2.02905C30.3704 2.02905 21.941 12.6438 20.6923 16.7023C19.4435 20.8389 18.5069 37.7756 17.4142 40.1952L13.5117 23.4926L20.6923 6.08762L30.3704 2.02905ZM70.0194 2.02905C70.0194 2.02905 78.4487 12.6438 79.6975 16.7023C80.9463 20.8389 81.8829 37.7756 82.9756 40.1952L86.8781 23.4926L79.6975 6.08762L70.0194 2.02905Z" fill="#CCAC8D"/>
<path d="M69.6292 2.02925C69.6292 2.02925 78.683 9.60003 81.3367 18.3416C83.9904 27.0831 82.8977 37.6978 84.927 39.0246C87.8148 40.8978 91.0929 29.7368 92.1856 28.566C93.9027 26.6928 99.6003 21.9318 99.9906 21.0733C100.381 20.2147 88.4392 7.1805 83.2099 4.60488C76.8878 1.639 69.0829 1.40486 69.6292 2.02925Z" fill="#56332B"/>
<path d="M77.3564 6.71216C77.3564 6.71216 88.0492 20.3708 87.8931 37.3855L92.1858 28.644C92.1078 28.644 88.3614 17.4829 77.3564 6.71216Z" fill="#442823"/>
<path d="M30.3705 2.02925C30.3705 2.02925 21.3168 9.60003 18.6631 18.3416C16.0094 27.0831 17.1021 37.6978 15.0729 39.0246C12.185 40.8978 8.90696 29.7368 7.81427 28.566C6.09719 26.6928 0.399586 21.9318 0.00933904 21.0733C-0.380908 20.2147 11.5606 7.1805 16.7899 4.60488C23.1119 1.639 30.9169 1.40486 30.3705 2.02925Z" fill="#56332B"/>
<path d="M22.6434 6.71216C22.6434 6.71216 11.9507 20.3708 12.1068 37.3855L7.89209 28.644C7.89209 28.644 11.6385 17.4829 22.6434 6.71216Z" fill="#442823"/>
<path d="M16.8682 37.6976C16.8682 37.6976 17.6487 41.9123 18.8974 43.2391C20.1462 44.5659 19.2877 42.2245 19.2877 42.2245C19.2877 42.2245 17.9609 41.522 18.195 36.1366C18.4292 30.7512 16.8682 37.6976 16.8682 37.6976ZM83.4442 37.6976C83.4442 37.6976 82.6637 41.9123 81.4149 43.2391C80.1661 44.5659 81.0247 42.2245 81.0247 42.2245C81.0247 42.2245 82.3515 41.522 82.1174 36.1366C81.8832 30.7512 83.4442 37.6976 83.4442 37.6976Z" fill="#CCAC8D"/>
<path d="M42.3905 35.1222C42.7353 35.1222 43.0149 34.8426 43.0149 34.4977C43.0149 34.1529 42.7353 33.8733 42.3905 33.8733C42.0457 33.8733 41.7661 34.1529 41.7661 34.4977C41.7661 34.8426 42.0457 35.1222 42.3905 35.1222Z" fill="#442823"/>
<path d="M38.8002 38.8684C39.1451 38.8684 39.4246 38.5888 39.4246 38.244C39.4246 37.8992 39.1451 37.6196 38.8002 37.6196C38.4553 37.6196 38.1758 37.8992 38.1758 38.244C38.1758 38.5888 38.4553 38.8684 38.8002 38.8684Z" fill="#442823"/>
<path d="M37.6293 35.1222C37.9742 35.1222 38.2537 34.8426 38.2537 34.4977C38.2537 34.1529 37.9742 33.8733 37.6293 33.8733C37.2844 33.8733 37.0049 34.1529 37.0049 34.4977C37.0049 34.8426 37.2844 35.1222 37.6293 35.1222Z" fill="#442823"/>
<path d="M57.6098 35.1222C57.9547 35.1222 58.2343 34.8426 58.2343 34.4977C58.2343 34.1529 57.9547 33.8733 57.6098 33.8733C57.2649 33.8733 56.9854 34.1529 56.9854 34.4977C56.9854 34.8426 57.2649 35.1222 57.6098 35.1222Z" fill="#442823"/>
<path d="M61.2001 38.8684C61.5449 38.8684 61.8244 38.5888 61.8244 38.244C61.8244 37.8992 61.5449 37.6196 61.2001 37.6196C60.8552 37.6196 60.5757 37.8992 60.5757 38.244C60.5757 38.5888 60.8552 38.8684 61.2001 38.8684Z" fill="#442823"/>
<path d="M62.371 35.1222C62.7158 35.1222 62.9953 34.8426 62.9953 34.4977C62.9953 34.1529 62.7158 33.8733 62.371 33.8733C62.0261 33.8733 61.7466 34.1529 61.7466 34.4977C61.7466 34.8426 62.0261 35.1222 62.371 35.1222Z" fill="#442823"/>
</svg>
