<svg width="110" height="110" viewBox="0 0 110 110" fill="none" xmlns="http://www.w3.org/2000/svg">
<path d="M55.0001 77.9167C25.4376 77.9167 2.29175 67.8334 2.29175 55C2.29175 42.1667 25.4376 32.0834 55.0001 32.0834C84.5626 32.0834 107.708 42.1667 107.708 55C107.708 67.8334 84.5626 77.9167 55.0001 77.9167ZM55.0001 36.6667C26.1251 36.6667 6.87508 46.0625 6.87508 55C6.87508 63.9375 26.1251 73.3334 55.0001 73.3334C83.8751 73.3334 103.125 63.9375 103.125 55C103.125 46.0625 83.8751 36.6667 55.0001 36.6667Z" fill="#80DEEA"/>
<path d="M34.6041 102.208C32.3125 102.208 30.4791 101.75 28.6458 100.604C17.4166 94.1875 20.3958 69.2083 35.0625 43.5417C41.9375 31.625 50.4166 21.5417 58.6666 15.125C67.6041 8.24999 75.625 6.18749 81.125 9.39583C86.8541 12.6042 88.9166 20.625 87.5416 31.8542C86.1666 42.3958 81.5833 54.7708 74.7083 66.6875C67.8333 78.6042 59.3541 88.6875 51.1041 95.1042C45.1458 99.6875 39.4166 102.208 34.6041 102.208ZM75.3958 12.375C71.7291 12.375 66.9166 14.4375 61.6458 18.5625C53.8541 24.75 45.8333 34.375 39.1875 45.8333C24.75 70.8125 23.375 92.3542 30.9375 96.7083C34.8333 99 41.25 96.9375 48.3541 91.4375C56.1458 85.25 64.1666 75.625 70.8125 64.1667C77.4583 52.7083 81.8125 41.0208 83.1875 31.1667C84.3333 22 82.9583 15.5833 79.0625 13.2917C77.9166 12.8333 76.7708 12.375 75.3958 12.375Z" fill="#80DEEA"/>
<path d="M75.6251 102.208C64.1668 102.208 47.6668 88.2292 35.2918 66.4584C20.3959 40.7917 17.4168 15.8125 28.6459 9.39587C39.8751 2.97921 60.0418 17.875 74.9376 43.5417C81.8126 55.4584 86.3959 67.8334 87.7709 78.375C89.3751 89.6042 87.0834 97.3959 81.3543 100.833C79.5209 101.75 77.6876 102.208 75.6251 102.208ZM30.9376 13.2917C23.3751 17.6459 24.7501 39.1875 39.1876 64.1667C53.6251 89.1459 71.5001 101.063 79.0626 96.7084C82.9584 94.4167 84.3334 88 83.1876 78.8334C81.8126 68.9792 77.4584 57.2917 70.8126 45.8334C56.3751 20.8542 38.5001 8.93754 30.9376 13.2917Z" fill="#80DEEA"/>
<path d="M54.9999 64.1667C60.0625 64.1667 64.1666 60.0627 64.1666 55C64.1666 49.9374 60.0625 45.8334 54.9999 45.8334C49.9373 45.8334 45.8333 49.9374 45.8333 55C45.8333 60.0627 49.9373 64.1667 54.9999 64.1667Z" fill="#80DEEA"/>
</svg>
